# xmcd
#
# Track frame offsets:
#	150
#	25710
#	41675
#	58785
#	76595
#	96930
#	121115
#	147470
#	165930
#	182335
#	206190
#	234840
#	252475
#
# Disc length: 3535 seconds
#
# Revision: 1
# Processed by: cddbd v1.4PL0 Copyright (c) Steve Scherf et al.
# Submitted via: EasyCDDAExtractor 5.1.0
#
DISCID=a10dcd0d
DTITLE=Dry weave - Skifid things
DYEAR=1997
DGENRE=Blues
TTITLE0=Empty bottle blues
TTITLE1=Snatch a feather
TTITLE2=Got to move
TTITLE3=Come on, lay down, get wet
TTITLE4=Pigs at the parliament zoo
TTITLE5=Take a ride
TTITLE6=Misty grey sand
TTITLE7=Anyway you want it
TTITLE8=Larger than life
TTITLE9=Skifid man
TTITLE10=Long distance blues
TTITLE11=How you want it done
TTITLE12=Sittin´ on a bench in a park
EXTD=
EXTT0=
EXTT1=
EXTT2=
EXTT3=
EXTT4=
EXTT5=
EXTT6=
EXTT7=
EXTT8=
EXTT9=
EXTT10=
EXTT11=
EXTT12=
PLAYORDER=
